<svg width="20" height="20" viewBox="0 0 20 20" fill="none" xmlns="http://www.w3.org/2000/svg">
<path fill-rule="evenodd" clip-rule="evenodd" d="M13 17H7C5.34315 17 4 15.6569 4 14V5C3.44772 5 3 5.44772 3 6V17C3 17.5523 3.44772 18 4 18H12C12.5523 18 13 17.5523 13 17ZM13.9985 15H7C6.44772 15 6 14.5523 6 14V4V3C6 2.44772 6.44772 2 7 2H11.5H13.7816C14.0784 2 14.3599 2.13182 14.5498 2.35982L15.5 3.5L16.7593 4.96913C16.9146 5.15038 17 5.38121 17 5.61992V8.5V14C17 14.5523 16.5523 15 16 15H14.0015C14.001 15 14.0005 15 14 15C13.9995 15 13.999 15 13.9985 15ZM15 17C15 18.6569 13.6569 20 12 20H4C2.34315 20 1 18.6569 1 17V6C1 4.34315 2.34315 3 4 3C4 1.34315 5.34314 0 7 0H11.5H13.7816C14.672 0 15.5163 0.39547 16.0863 1.07945L17.0276 2.20898L18.2778 3.66755C18.7438 4.21128 19 4.90379 19 5.61992V8.5V14C19 15.6569 17.6569 17 16 17H15ZM8 5C8 4.44772 8.4477 4 9 4H13C13.5523 4 14 4.44772 14 5C14 5.55229 13.5523 6 13 6H9C8.4477 6 8 5.55229 8 5ZM9 7.5C8.4477 7.5 8 7.94772 8 8.5C8 9.0523 8.4477 9.5 9 9.5H14C14.5523 9.5 15 9.0523 15 8.5C15 7.94772 14.5523 7.5 14 7.5H9ZM8 12C8 11.4477 8.4477 11 9 11H14C14.5523 11 15 11.4477 15 12C15 12.5523 14.5523 13 14 13H9C8.4477 13 8 12.5523 8 12Z" fill="#333"/>
</svg>
